<svg height="470pt" viewBox="0 0 279 470" width="279pt" xmlns="http://www.w3.org/2000/svg" xmlns:xlink="http://www.w3.org/1999/xlink"><g transform="translate(4 466)"><path d="m-4 5v-471h280v471z" fill="#fff" stroke="#fff"/><a xlink:href="/wiki/makefile/automake#从-helloworld-入手http://hahack.com" xlink:title="源代码"><path d="m77.25-462h-58.5v36h58.5z" fill="#c0d0c0" stroke="#000"/><text font-family="Times,serif" font-size="14" text-anchor="middle" x="48" y="-440.3">源代码</text></a><path d="m96-374h-96v36h96z" fill="#c0d0c0" stroke="#000"/><text font-family="Times,serif" font-size="14" text-anchor="middle" x="48" y="-352.3">configure.scan</text><path d="m48-425.597v41.305" fill="none" stroke="#000"/><path d="m51.5001-384.084-3.5001 10-3.4999-10z" stroke="#000"/><text font-family="Times,serif" font-size="14" text-anchor="middle" x="77" y="-396.3">自动扫描</text><path d="m89.5-286h-83v36h83z" fill="#c0d0c0" stroke="#000"/><text font-family="Times,serif" font-size="14" text-anchor="middle" x="48" y="-264.3">configure.ac</text><path d="m48-337.597v41.305" fill="none" stroke="#000"/><path d="m51.5001-296.084-3.5001 10-3.4999-10z" stroke="#000"/><text font-family="Times,serif" font-size="14" text-anchor="middle" x="62.5" y="-308.3">编辑</text><path d="m153-110h-68v36h68z" fill="#c0d0c0" stroke="#000"/><text font-family="Times,serif" font-size="14" text-anchor="middle" x="119" y="-88.3">configure</text><path d="m36.9415-249.768c-12.3068 21.548-28.64736 59.088-13.9415 87.768 11.2072 21.857 32.915 38.357 52.8568 49.733" fill="none" stroke="#000"/><path d="m77.7217-115.238 7.1293 7.838-10.4607-1.681z" stroke="#000"/><text font-family="Times,serif" font-size="14" text-anchor="middle" x="47" y="-176.3">autoconf</text><path d="m157.25-198h-76.5v36h76.5z" fill="#c0d0c0" stroke="#000"/><text font-family="Times,serif" font-size="14" text-anchor="middle" x="119" y="-176.3">aclocal.m4</text><path d="m62.3679-249.597c10.365 12.555 24.5088 29.687 36.0684 43.689" fill="none" stroke="#000"/><path d="m101.228-208.024 3.668 9.94-9.0658-5.483z" stroke="#000"/><text font-family="Times,serif" font-size="14" text-anchor="middle" x="109.5" y="-220.3">aclocal</text><path d="m262.25-198h-86.5v36h86.5z" fill="#c0d0c0" stroke="#000"/><text font-family="Times,serif" font-size="14" text-anchor="middle" x="219" y="-176.3">Makefile.am</text><path d="m255-110h-80v36h80z" fill="#c0d0c0" stroke="#000"/><text font-family="Times,serif" font-size="14" text-anchor="middle" x="215" y="-88.3">Makefile.in</text><path d="m218.191-161.597c-.552 11.851-1.293 27.78-1.922 41.305" fill="none" stroke="#000"/><path d="m219.756-119.911-3.961 9.827-3.032-10.152z" stroke="#000"/><text font-family="Times,serif" font-size="14" text-anchor="middle" x="244" y="-132.3">automake</text><path d="m208-36h-66v36h66z" fill="#c0d0c0" stroke="#000"/><text font-family="Times,serif" font-size="14" text-anchor="middle" x="175" y="-14.3">Makefile</text><g stroke="#000"><path d="m205.521-73.937c-4.762 8.5716-10.637 19.1456-15.956 28.7205" fill="none"/><path d="m192.605-43.4825-7.916 7.0418 1.797-10.4413z"/><path d="m119-161.597v41.305" fill="none"/><path d="m122.5-120.084-3.5 10-3.5-10z"/><path d="m132.271-73.937c6.805 8.7484 15.231 19.5825 22.798 29.3114" fill="none"/><path d="m158.058-46.483 3.377 10.0423-8.902-5.7447z"/></g></g></svg>